#Comment line ignore any data following # character 
#Hierarchical Translation and Rotation (.htr) file 
[Header]	
#Header keywords are followed by a single value 
FileType HTR		#Single word string
DataType HTRS		#Translation followed by rotation and scale data
FileVersion 1		#integer
NumSegments 84		#integer
NumFrames 2		#integer
DataFrameRate 30		#integer, data frame rate in this file
EulerRotationOrder ZYX
CalibrationUnits mm
RotationUnits Degrees
GlobalAxisofGravity Y
BoneLengthAxis Y
ScaleFactor 1.00
[SegmentNames&Hierarchy]
#CHILD	PARENT
MASTER GLOBAL
root MASTER
chest root
L_mid_tent01 root
R_mid_tent01 root
spine01 root
Bip01_Neck chest
L_humerus chest
R_humerus chest
weapon_bone chest
Bip01_Head Bip01_Neck
eye_left_bone Bip01_Head
eye_right_bone Bip01_Head
L_forearm L_humerus
L_front_hand L_forearm
L_weapon_bone L_forearm
L_front_hand01_01 L_front_hand
L_front_hand02_01 L_front_hand
L_front_hand03_01 L_front_hand
L_front_hand01_02 L_front_hand01_01
L_front_hand02_02 L_front_hand02_01
L_front_hand03_02 L_front_hand03_01
R_forearm R_humerus
R_front_hand R_forearm
R_weapon_bone R_forearm
R_front_hand01_01 R_front_hand
R_front_hand02_01 R_front_hand
R_front_hand03_01 R_front_hand
R_front_hand01_02 R_front_hand01_01
R_front_hand02_02 R_front_hand02_01
R_front_hand03_02 R_front_hand03_01
null_rope01_connect L_mid_tent01
Rope1_Seg01 null_rope01_connect
Rope1_Seg02 Rope1_Seg01
Rope1_Seg03 Rope1_Seg02
Rope1_Seg04 Rope1_Seg03
Rope1_Seg05 Rope1_Seg04
Rope1_Seg06 Rope1_Seg05
Rope1_Seg07 Rope1_Seg06
Rope1_Seg09 Rope1_Seg07
L_mid_hand01 Rope1_Seg09
L_mid_hand02 Rope1_Seg09
L_mid_hand03 Rope1_Seg09
null_rope02_connect R_mid_tent01
Rope2_Seg01 null_rope02_connect
Rope2_Seg02 Rope2_Seg01
Rope2_Seg03 Rope2_Seg02
Rope2_Seg04 Rope2_Seg03
Rope2_Seg05 Rope2_Seg04
Rope2_Seg06 Rope2_Seg05
Rope2_Seg07 Rope2_Seg06
Rope2_Seg09 Rope2_Seg07
R_mid_hand01 Rope2_Seg09
R_mid_hand02 Rope2_Seg09
R_mid_hand03 Rope2_Seg09
spine02 spine01
spine03 spine02
pelvis spine03
null_rope03_connect pelvis
null_rope04_connect pelvis
Rope3_Seg01 null_rope03_connect
Rope3_Seg02 Rope3_Seg01
Rope3_Seg03 Rope3_Seg02
Rope3_Seg04 Rope3_Seg03
Rope3_Seg05 Rope3_Seg04
Rope3_Seg06 Rope3_Seg05
Rope3_Seg07 Rope3_Seg06
Rope3_Seg08 Rope3_Seg07
Rope3_Seg09 Rope3_Seg08
R_rear_hand01 Rope3_Seg09
R_rear_hand02 Rope3_Seg09
R_rear_hand03 Rope3_Seg09
Rope4_Seg01 null_rope04_connect
Rope4_Seg02 Rope4_Seg01
Rope4_Seg03 Rope4_Seg02
Rope4_Seg04 Rope4_Seg03
Rope4_Seg05 Rope4_Seg04
Rope4_Seg06 Rope4_Seg05
Rope4_Seg07 Rope4_Seg06
Rope4_Seg08 Rope4_Seg07
Rope4_Seg09 Rope4_Seg08
L_rear_hand01 Rope4_Seg09
L_rear_hand02 Rope4_Seg09
L_rear_hand03 Rope4_Seg09
[BasePosition]
#SegmentName Tx, Ty, Tz, Rx, Ry, Rz, BoneLength
MASTER 0.000000 0.000000 0.000000 -90.000000 0.000000 0.000000 10.000000 
root 0.000000 0.000000 0.000000 0.000000 0.000000 0.000000 10.000000 
chest 0.000000 0.000000 0.000000 0.000000 0.000000 0.000000 10.000000 
L_mid_tent01 0.000000 0.000000 0.000000 0.000000 0.000000 0.000000 10.000000 
R_mid_tent01 0.000000 0.000000 0.000000 0.000000 0.000000 0.000000 10.000000 
spine01 0.000000 0.000000 0.000000 0.000000 0.000000 0.000000 10.000000 
Bip01_Neck 0.000000 0.000000 0.000000 0.000000 0.000000 0.000000 10.000000 
L_humerus 0.000000 0.000000 0.000000 0.000000 0.000000 0.000000 10.000000 
R_humerus 0.000000 0.000000 0.000000 0.000000 0.000000 0.000000 10.000000 
weapon_bone 0.000000 0.000000 0.000000 0.000000 0.000000 0.000000 10.000000 
Bip01_Head 0.000000 0.000000 0.000000 0.000000 0.000000 0.000000 10.000000 
eye_left_bone 0.000000 0.000000 0.000000 0.000000 0.000000 0.000000 10.000000 
eye_right_bone 0.000000 0.000000 0.000000 0.000000 0.000000 0.000000 10.000000 
L_forearm 0.000000 0.000000 0.000000 0.000000 0.000000 0.000000 10.000000 
L_front_hand 0.000000 0.000000 0.000000 0.000000 0.000000 0.000000 10.000000 
L_weapon_bone 0.000000 0.000000 0.000000 0.000000 0.000000 0.000000 10.000000 
L_front_hand01_01 0.000000 0.000000 0.000000 0.000000 0.000000 0.000000 10.000000 
L_front_hand02_01 0.000000 0.000000 0.000000 0.000000 0.000000 0.000000 10.000000 
L_front_hand03_01 0.000000 0.000000 0.000000 0.000000 0.000000 0.000000 10.000000 
L_front_hand01_02 0.000000 0.000000 0.000000 0.000000 0.000000 0.000000 10.000000 
L_front_hand02_02 0.000000 0.000000 0.000000 0.000000 0.000000 0.000000 10.000000 
L_front_hand03_02 0.000000 0.000000 0.000000 0.000000 0.000000 0.000000 10.000000 
R_forearm 0.000000 0.000000 0.000000 0.000000 0.000000 0.000000 10.000000 
R_front_hand 0.000000 0.000000 0.000000 0.000000 0.000000 0.000000 10.000000 
R_weapon_bone 0.000000 0.000000 0.000000 0.000000 0.000000 0.000000 10.000000 
R_front_hand01_01 0.000000 0.000000 0.000000 0.000000 0.000000 0.000000 10.000000 
R_front_hand02_01 0.000000 0.000000 0.000000 0.000000 0.000000 0.000000 10.000000 
R_front_hand03_01 0.000000 0.000000 0.000000 0.000000 0.000000 0.000000 10.000000 
R_front_hand01_02 0.000000 0.000000 0.000000 0.000000 0.000000 0.000000 10.000000 
R_front_hand02_02 0.000000 0.000000 0.000000 0.000000 0.000000 0.000000 10.000000 
R_front_hand03_02 0.000000 0.000000 0.000000 0.000000 0.000000 0.000000 10.000000 
null_rope01_connect 0.000000 0.000000 0.000000 0.000000 0.000000 0.000000 10.000000 
Rope1_Seg01 0.000000 0.000000 0.000000 0.000000 0.000000 0.000000 10.000000 
Rope1_Seg02 0.000000 0.000000 0.000000 0.000000 0.000000 0.000000 10.000000 
Rope1_Seg03 0.000000 0.000000 0.000000 0.000000 0.000000 0.000000 10.000000 
Rope1_Seg04 0.000000 0.000000 0.000000 0.000000 0.000000 0.000000 10.000000 
Rope1_Seg05 0.000000 0.000000 0.000000 0.000000 0.000000 0.000000 10.000000 
Rope1_Seg06 0.000000 0.000000 0.000000 0.000000 0.000000 0.000000 10.000000 
Rope1_Seg07 0.000000 0.000000 0.000000 0.000000 0.000000 0.000000 10.000000 
Rope1_Seg09 0.000000 0.000000 0.000000 0.000000 0.000000 0.000000 10.000000 
L_mid_hand01 0.000000 0.000000 0.000000 0.000000 0.000000 0.000000 10.000000 
L_mid_hand02 0.000000 0.000000 0.000000 0.000000 0.000000 0.000000 10.000000 
L_mid_hand03 0.000000 0.000000 0.000000 0.000000 0.000000 0.000000 10.000000 
null_rope02_connect 0.000000 0.000000 0.000000 0.000000 0.000000 0.000000 10.000000 
Rope2_Seg01 0.000000 0.000000 0.000000 0.000000 0.000000 0.000000 10.000000 
Rope2_Seg02 0.000000 0.000000 0.000000 0.000000 0.000000 0.000000 10.000000 
Rope2_Seg03 0.000000 0.000000 0.000000 0.000000 0.000000 0.000000 10.000000 
Rope2_Seg04 0.000000 0.000000 0.000000 0.000000 0.000000 0.000000 10.000000 
Rope2_Seg05 0.000000 0.000000 0.000000 0.000000 0.000000 0.000000 10.000000 
Rope2_Seg06 0.000000 0.000000 0.000000 0.000000 0.000000 0.000000 10.000000 
Rope2_Seg07 0.000000 0.000000 0.000000 0.000000 0.000000 0.000000 10.000000 
Rope2_Seg09 0.000000 0.000000 0.000000 0.000000 0.000000 0.000000 10.000000 
R_mid_hand01 0.000000 0.000000 0.000000 0.000000 0.000000 0.000000 10.000000 
R_mid_hand02 0.000000 0.000000 0.000000 0.000000 0.000000 0.000000 10.000000 
R_mid_hand03 0.000000 0.000000 0.000000 0.000000 0.000000 0.000000 10.000000 
spine02 0.000000 0.000000 0.000000 0.000000 0.000000 0.000000 10.000000 
spine03 0.000000 0.000000 0.000000 0.000000 0.000000 0.000000 10.000000 
pelvis 0.000000 0.000000 0.000000 0.000000 0.000000 0.000000 10.000000 
null_rope03_connect 0.000000 0.000000 0.000000 0.000000 0.000000 0.000000 10.000000 
null_rope04_connect 0.000000 0.000000 0.000000 0.000000 0.000000 0.000000 10.000000 
Rope3_Seg01 0.000000 0.000000 0.000000 0.000000 0.000000 0.000000 10.000000 
Rope3_Seg02 0.000000 0.000000 0.000000 0.000000 0.000000 0.000000 10.000000 
Rope3_Seg03 0.000000 0.000000 0.000000 0.000000 0.000000 0.000000 10.000000 
Rope3_Seg04 0.000000 0.000000 0.000000 0.000000 0.000000 0.000000 10.000000 
Rope3_Seg05 0.000000 0.000000 0.000000 0.000000 0.000000 0.000000 10.000000 
Rope3_Seg06 0.000000 0.000000 0.000000 0.000000 0.000000 0.000000 10.000000 
Rope3_Seg07 0.000000 0.000000 0.000000 0.000000 0.000000 0.000000 10.000000 
Rope3_Seg08 0.000000 0.000000 0.000000 0.000000 0.000000 0.000000 10.000000 
Rope3_Seg09 0.000000 0.000000 0.000000 0.000000 0.000000 0.000000 10.000000 
R_rear_hand01 0.000000 0.000000 0.000000 0.000000 0.000000 0.000000 10.000000 
R_rear_hand02 0.000000 0.000000 0.000000 0.000000 0.000000 0.000000 10.000000 
R_rear_hand03 0.000000 0.000000 0.000000 0.000000 0.000000 0.000000 10.000000 
Rope4_Seg01 0.000000 0.000000 0.000000 0.000000 0.000000 0.000000 10.000000 
Rope4_Seg02 0.000000 0.000000 0.000000 0.000000 0.000000 0.000000 10.000000 
Rope4_Seg03 0.000000 0.000000 0.000000 0.000000 0.000000 0.000000 10.000000 
Rope4_Seg04 0.000000 0.000000 0.000000 0.000000 0.000000 0.000000 10.000000 
Rope4_Seg05 0.000000 0.000000 0.000000 0.000000 0.000000 0.000000 10.000000 
Rope4_Seg06 0.000000 0.000000 0.000000 0.000000 0.000000 0.000000 10.000000 
Rope4_Seg07 0.000000 0.000000 0.000000 0.000000 0.000000 0.000000 10.000000 
Rope4_Seg08 0.000000 0.000000 0.000000 0.000000 0.000000 0.000000 10.000000 
Rope4_Seg09 0.000000 0.000000 0.000000 0.000000 0.000000 0.000000 10.000000 
L_rear_hand01 0.000000 0.000000 0.000000 0.000000 0.000000 0.000000 10.000000 
L_rear_hand02 0.000000 0.000000 0.000000 0.000000 0.000000 0.000000 10.000000 
L_rear_hand03 0.000000 0.000000 0.000000 0.000000 0.000000 0.000000 10.000000 
#Beginning of Data. Separated by tabs
#Fr	Tx	Ty	Tz	Rx	Ry	Rz	SF
[MASTER]
21 0.000000 0.000000 0.000000 0.001660 0.001660 0.001660 0.000000
22 0.000000 0.000000 0.000000 0.001660 0.001660 0.001660 0.000000
[root]
21 -27.884632 -56.740528 1501.395752 -78.216667 -39.024372 -87.973343 1502.726196
22 -27.884632 -56.740528 1501.395752 -78.216667 -39.024372 -87.973343 1502.726196
[chest]
21 -84.512650 -34.090519 0.000000 -2.594532 -0.201363 179.701126 91.129311
22 -84.512650 -34.090519 0.000000 -2.594532 -0.201363 179.701126 91.129311
[L_mid_tent01]
21 27.299511 22.177458 -249.918259 3.862628 36.229202 81.347610 252.381134
22 27.299511 22.177458 -249.918259 3.862628 36.229202 81.347610 252.381134
[R_mid_tent01]
21 23.228794 24.509907 226.238495 160.432037 -47.061241 87.899765 228.744751
22 23.228794 24.509907 226.238495 160.432037 -47.061241 87.899765 228.744751
[spine01]
21 -0.361383 -0.195265 0.000000 0.002062 0.001122 32.879829 0.410763
22 -0.361383 -0.195265 0.000000 0.002062 0.001122 32.879829 0.410763
[Bip01_Neck]
21 165.484543 71.581718 0.000119 176.643677 -1.657967 43.431911 180.302734
22 165.484543 71.581718 0.000119 176.643677 -1.657967 43.431911 180.302734
[L_humerus]
21 -13.983130 -135.272980 -120.471481 156.317398 70.210068 -112.010254 181.680161
22 -13.983130 -135.272980 -120.471481 156.317398 70.210068 -112.010254 181.680161
[R_humerus]
21 -13.983309 -135.273102 125.287651 -172.382263 -66.903831 -92.553993 184.909012
22 -13.983309 -135.273102 125.287651 -172.382263 -66.903831 -92.553993 184.909012
[weapon_bone]
21 235.964890 -300.705902 0.000000 0.000000 -89.951546 -128.212341 382.234833
22 235.964890 -300.705902 0.000000 0.000000 -89.951546 -128.212341 382.234833
[Bip01_Head]
21 213.372040 185.916519 9.179964 9.067745 3.281933 -43.888077 283.155182
22 213.372055 185.916519 9.179966 9.067745 3.281933 -43.888077 283.155182
[eye_left_bone]
21 -24.626970 125.451866 -64.772606 0.000000 -90.000000 -99.840431 143.318359
22 -24.626970 125.451866 -64.772606 0.000000 -90.000000 -99.840431 143.318359
[eye_right_bone]
21 -24.626970 125.451866 64.327362 0.000000 -89.965736 80.156380 143.117676
22 -24.626970 125.451866 64.327362 0.000000 -89.965736 80.156380 143.117676
[L_forearm]
21 322.776093 0.000000 -0.000119 0.000119 -0.002344 -95.807457 322.776093
22 322.776093 0.000000 -0.000119 0.000119 -0.002344 -95.807457 322.776093
[L_front_hand]
21 241.149185 -0.042021 -3.300071 -178.667953 -1.835447 -27.422350 241.171753
22 241.149185 -0.042021 -3.300071 -178.667953 -1.835447 -27.422350 241.171753
[L_weapon_bone]
21 156.183838 0.000000 0.000000 0.000014 0.000007 0.000001 156.183838
22 156.183838 0.000000 0.000000 0.000014 0.000007 0.000001 156.183838
[L_front_hand01_01]
21 86.095154 20.947098 -0.655860 -0.366594 -0.477154 75.385574 88.609184
22 86.095154 20.947098 -0.655860 -0.366594 -0.477154 75.385574 88.609184
[L_front_hand02_01]
21 86.935165 -11.437475 24.513514 154.399796 -59.883835 -61.369587 91.046425
22 86.935165 -11.437475 24.513514 154.399796 -59.883835 -61.369587 91.046425
[L_front_hand03_01]
21 86.637497 -14.123976 -20.424902 -153.913849 58.118122 -62.702866 90.126129
22 86.637497 -14.123976 -20.424902 -153.913849 58.118130 -62.702866 90.126129
[L_front_hand01_02]
21 71.020905 -0.000179 0.000030 0.000334 -0.002323 -106.379684 71.020905
22 71.020905 -0.000179 0.000030 0.000334 -0.002323 -106.379684 71.020905
[L_front_hand02_02]
21 71.020927 -0.000119 0.000060 0.000334 -0.002323 -106.379684 71.020927
22 71.020927 -0.000119 0.000060 0.000334 -0.002323 -106.379684 71.020927
[L_front_hand03_02]
21 71.020905 -0.000060 0.000060 0.000334 -0.002323 -106.379684 71.020905
22 71.020905 -0.000060 0.000060 0.000334 -0.002323 -106.379684 71.020905
[R_forearm]
21 322.776428 -0.000060 0.000030 0.209504 0.012586 -94.339050 322.776428
22 322.776428 -0.000060 0.000030 0.209504 0.012586 -94.339050 322.776428
[R_front_hand]
21 238.847015 -0.006795 2.210259 -2.635298 -10.645461 -26.312506 238.857239
22 238.847015 -0.006795 2.210259 -2.635298 -10.645461 -26.312506 238.857239
[R_weapon_bone]
21 155.664093 0.002503 -0.000030 0.003487 0.001180 -90.988930 155.664078
22 155.664093 0.002503 -0.000030 0.003487 0.001180 -90.988930 155.664078
[R_front_hand01_01]
21 87.624611 14.231146 22.918642 -154.633499 -59.950619 61.746044 91.683487
22 87.624611 14.231146 22.918642 -154.633499 -59.950634 61.746063 91.683487
[R_front_hand02_01]
21 89.356956 14.367283 -19.491137 154.602661 58.302849 63.744389 92.579636
22 89.356956 14.367283 -19.491137 154.602661 58.302849 63.744389 92.579636
[R_front_hand03_01]
21 87.286232 -22.307278 -0.143439 0.162155 -0.423168 -75.767921 90.091743
22 87.286232 -22.307278 -0.143439 0.162155 -0.423168 -75.767921 90.091743
[R_front_hand01_02]
21 71.020905 0.000060 0.000119 0.002323 -0.000334 106.381714 71.020905
22 71.020905 0.000060 0.000119 0.002323 -0.000334 106.381714 71.020905
[R_front_hand02_02]
21 71.020844 -0.000030 -0.000119 0.002323 -0.000334 106.381714 71.020836
22 71.020844 -0.000030 -0.000119 0.002323 -0.000334 106.381714 71.020836
[R_front_hand03_02]
21 71.020905 0.000000 0.000030 0.002323 -0.000334 106.381714 71.020905
22 71.020905 0.000000 0.000030 0.002323 -0.000334 106.381714 71.020905
[null_rope01_connect]
21 328.732483 0.000000 -0.000238 -121.867149 -66.548218 170.046249 328.732483
22 328.732483 0.000000 -0.000238 -121.867149 -66.548225 170.046249 328.732483
[Rope1_Seg01]
21 0.000000 0.000000 0.000000 109.707344 4.658383 -167.103134 0.000000
22 0.000000 0.000000 0.000000 110.864838 6.199618 -167.002136 0.000000
[Rope1_Seg02]
21 139.999863 -0.000179 0.000000 14.010814 -16.632261 -7.934786 139.999863
22 139.999863 -0.000179 0.000000 13.650054 -16.705532 -7.026874 139.999863
[Rope1_Seg03]
21 139.999924 0.000060 -0.000060 14.541245 -26.761713 -9.440296 139.999924
22 139.999924 0.000060 -0.000060 13.233729 -26.076315 -7.618641 139.999924
[Rope1_Seg04]
21 139.999924 -0.000060 -0.000119 2.309060 -27.199869 2.349346 139.999924
22 139.999924 -0.000060 -0.000119 1.919220 -27.375126 3.103572 139.999924
[Rope1_Seg05]
21 139.999832 0.000119 -0.000060 -4.164702 -20.657621 13.008116 139.999832
22 139.999832 0.000119 -0.000060 -4.680786 -21.878159 12.359509 139.999832
[Rope1_Seg06]
21 139.999954 0.000119 -0.000060 -3.073731 -10.157120 4.850671 139.999954
22 139.999954 0.000119 -0.000060 -3.441252 -10.350478 4.318581 139.999954
[Rope1_Seg07]
21 139.999985 0.000060 0.000000 -2.226043 -5.447025 2.063781 139.999985
22 139.999985 0.000060 0.000000 -2.440955 -5.493803 1.777938 139.999985
[Rope1_Seg09]
21 121.602913 0.000119 -0.000089 -89.793175 -1.359789 0.847147 121.602913
22 121.602913 0.000119 -0.000089 -89.793175 -1.359789 0.847147 121.602913
[L_mid_hand01]
21 103.859421 1.038730 8.195221 130.544373 -67.584534 -38.866943 104.187431
22 103.859421 1.038730 8.195221 130.544373 -67.584534 -38.866943 104.187431
[L_mid_hand02]
21 105.572853 -4.139662 -10.864139 -168.923172 43.409309 -73.498886 106.211075
22 105.572853 -4.139662 -10.864139 -168.923172 43.409309 -73.498886 106.211075
[L_mid_hand03]
21 104.641464 17.579376 -3.913581 -6.012627 17.808174 74.893669 106.179977
22 104.641464 17.579376 -3.913581 -6.012627 17.808174 74.893669 106.179977
[null_rope02_connect]
21 328.732849 0.000179 -0.000119 -116.101486 27.529917 12.015828 328.732849
22 328.732849 0.000179 -0.000119 -116.101486 27.529917 12.015828 328.732849
[Rope2_Seg01]
21 -0.000038 0.000153 0.000000 -45.265129 7.303462 -2.402534 0.000157
22 -0.000038 0.000153 0.000000 -45.992962 7.972823 -2.422735 0.000157
[Rope2_Seg02]
21 139.999741 -0.000060 -0.000119 -15.156449 3.004063 15.363087 139.999756
22 139.999741 -0.000060 -0.000119 -15.099567 2.709062 15.361378 139.999756
[Rope2_Seg03]
21 140.000107 0.000030 0.000000 -12.376586 -2.563761 19.254847 140.000107
22 140.000107 0.000030 0.000000 -12.125094 -2.893452 19.008659 140.000107
[Rope2_Seg04]
21 139.999802 0.000000 -0.000060 -6.118908 -5.595430 15.404054 139.999802
22 139.999802 0.000000 -0.000060 -5.961576 -5.723277 15.142694 139.999802
[Rope2_Seg05]
21 139.999985 -0.000060 0.000119 -5.230607 -1.494003 23.023697 139.999985
22 139.999985 -0.000060 0.000119 -5.267895 -1.728827 23.617353 139.999985
[Rope2_Seg06]
21 139.999893 -0.000030 -0.000119 -1.046651 -2.759969 26.573626 139.999893
22 139.999893 -0.000030 -0.000119 -0.793358 -3.109211 27.268511 139.999893
[Rope2_Seg07]
21 139.999893 0.000060 -0.000060 1.838706 -2.305585 14.444406 139.999893
22 139.999893 0.000060 -0.000060 2.104558 -2.360979 14.523558 139.999893
[Rope2_Seg09]
21 121.338966 0.000089 -0.000060 33.793236 -1.359788 -0.847141 121.338966
22 121.338966 0.000089 -0.000060 33.793236 -1.359788 -0.847141 121.338966
[R_mid_hand01]
21 104.680779 11.144459 -10.335981 -16.212063 45.237240 70.462845 105.778534
22 104.680779 11.144459 -10.335981 -16.212065 45.237247 70.462852 105.778534
[R_mid_hand02]
21 104.070427 2.443552 8.231699 49.067368 -67.749771 39.286453 104.424065
22 104.070427 2.443552 8.231699 49.067368 -67.749771 39.286453 104.424065
[R_mid_hand03]
21 106.028137 -11.221827 -5.996406 -177.101105 15.551026 -76.585571 106.788818
22 106.028137 -11.221827 -5.996406 -177.101105 15.551026 -76.585571 106.788818
[spine02]
21 129.756927 0.001550 0.000119 -1.023899 -3.926965 6.770993 129.756927
22 129.756927 0.001550 0.000119 -1.023899 -3.926965 6.770993 129.756927
[spine03]
21 78.613846 0.087372 -4.898873 1.040681 4.146420 4.212376 78.766380
22 78.613846 0.087372 -4.898873 1.040681 4.146420 4.212376 78.766380
[pelvis]
21 169.435242 0.051022 0.000000 0.019518 -0.190233 -10.721436 169.435257
22 169.435242 0.051022 0.000000 0.019518 -0.190233 -10.721436 169.435257
[null_rope03_connect]
21 -1.257226 -2.466202 137.391083 46.458324 -77.110161 49.356071 137.418976
22 -1.257226 -2.466202 137.391083 46.458324 -77.110161 49.356071 137.418976
[null_rope04_connect]
21 -1.259640 -2.480268 -137.844437 46.458324 -77.110161 49.356071 137.872513
22 -1.259640 -2.480268 -137.844437 46.458324 -77.110161 49.356071 137.872513
[Rope3_Seg01]
21 0.000000 0.000000 0.000000 -150.447067 -79.034790 -70.793549 0.000000
22 0.000000 0.000000 0.000000 -150.863586 -78.932098 -70.339500 0.000000
[Rope3_Seg02]
21 139.999924 -0.000119 0.000060 -0.214487 -5.416459 -11.698400 139.999924
22 139.999924 -0.000119 0.000060 -0.279346 -5.316515 -11.754844 139.999924
[Rope3_Seg03]
21 139.999924 -0.000119 0.000119 -0.907173 -6.206005 -13.253329 139.999924
22 139.999924 -0.000119 0.000119 -1.009783 -5.924383 -12.954485 139.999924
[Rope3_Seg04]
21 139.999924 0.000119 0.000000 2.585215 -8.072352 -9.997189 139.999924
22 139.999924 0.000119 0.000000 2.257752 -7.565952 -9.428191 139.999924
[Rope3_Seg05]
21 139.999924 -0.000238 0.000060 -6.372995 -2.824219 -9.832780 139.999924
22 139.999924 -0.000238 0.000060 -5.690589 -2.650638 -9.357669 139.999924
[Rope3_Seg06]
21 139.999893 -0.000119 -0.000060 -62.900265 5.810918 -21.961552 139.999893
22 139.999893 -0.000119 -0.000060 -55.826683 5.120693 -21.003780 139.999893
[Rope3_Seg07]
21 139.999771 0.000060 -0.000119 -43.896519 31.192699 -7.589520 139.999771
22 139.999771 0.000060 -0.000119 -50.433456 29.996334 -12.111218 139.999771
[Rope3_Seg08]
21 139.999985 -0.000060 0.000000 -4.737865 14.850566 7.592247 139.999985
22 139.999985 -0.000060 0.000000 -5.738965 15.560458 7.199830 139.999985
[Rope3_Seg09]
21 90.185997 -0.000179 -0.000060 89.793228 -1.359877 -0.847183 90.185997
22 90.185997 -0.000179 -0.000060 89.793228 -1.359877 -0.847183 90.185997
[R_rear_hand01]
21 103.366196 -6.073594 -10.757982 -177.714203 24.565960 -73.910950 104.101845
22 103.366196 -6.073594 -10.757982 -177.714203 24.565960 -73.910950 104.101845
[R_rear_hand02]
21 100.509819 12.039542 -7.992327 -12.874829 36.868488 72.167213 101.543350
22 100.509819 12.039542 -7.992327 -12.874829 36.868488 72.167213 101.543350
[R_rear_hand03]
21 101.539970 5.215704 5.435467 71.484581 -71.816628 21.513813 101.819031
22 101.539970 5.215704 5.435467 71.484581 -71.816628 21.513813 101.819031
[Rope4_Seg01]
21 0.000005 -0.000114 -0.000153 67.648422 -40.624016 -125.818123 0.000191
22 0.000004 -0.000114 -0.000153 67.613182 -40.726692 -125.685509 0.000191
[Rope4_Seg02]
21 139.999985 0.000060 0.000119 2.534543 -13.177929 -3.062652 139.999985
22 139.999985 0.000060 0.000119 2.525367 -13.202645 -3.084625 139.999985
[Rope4_Seg03]
21 139.999924 0.000000 -0.000238 10.220416 -22.143518 -4.575981 139.999924
22 139.999924 0.000000 -0.000238 10.172259 -22.187616 -4.638971 139.999924
[Rope4_Seg04]
21 139.999985 0.000000 0.000119 59.437119 -23.826336 -2.167212 139.999985
22 139.999985 0.000000 0.000119 59.277615 -23.795120 -2.410022 139.999985
[Rope4_Seg05]
21 139.999802 -0.000060 -0.000119 66.318810 -9.174870 17.598316 139.999802
22 139.999802 -0.000060 -0.000119 66.753128 -9.113157 17.514536 139.999802
[Rope4_Seg06]
21 139.999924 0.000000 0.000060 15.182601 21.649206 22.686750 139.999924
22 139.999924 0.000000 0.000060 14.930855 22.558470 22.858507 139.999924
[Rope4_Seg07]
21 139.999802 0.000000 0.000000 4.068498 17.872425 12.898337 139.999802
22 139.999802 0.000000 0.000000 4.061696 18.505112 13.132853 139.999802
[Rope4_Seg08]
21 139.999924 0.000000 0.000119 -0.740173 8.148604 5.400190 139.999924
22 139.999924 0.000000 0.000119 -0.779954 8.296309 5.418386 139.999924
[Rope4_Seg09]
21 90.185791 0.000060 0.000060 -135.617828 2.228885 0.850567 90.185791
22 90.185791 0.000060 0.000060 -135.617828 2.228885 0.850567 90.185791
[L_rear_hand01]
21 101.696655 -8.392275 -7.654577 -12.874829 -36.868488 107.832764 102.329041
22 101.696655 -8.392275 -7.654577 -12.874829 -36.868488 107.832764 102.329041
[L_rear_hand02]
21 102.726799 -1.568258 5.773216 71.484581 71.816628 158.486160 102.900848
22 102.726799 -1.568258 5.773216 71.484581 71.816628 158.486160 102.900848
[L_rear_hand03]
21 104.552910 9.721220 -10.420293 -177.714203 -24.565960 -106.089035 105.519653
22 104.552910 9.721220 -10.420293 -177.714203 -24.565960 -106.089035 105.519653
